<?xml version="1.0" encoding="utf-8"?><svg xmlns="http://www.w3.org/2000/svg" xmlns:xlink="http://www.w3.org/1999/xlink"><symbol fill="#fff" viewBox="0 0 64 64" id="culture" xmlns="http://www.w3.org/2000/svg"><path fill="currentColor" d="M0 0h64v64H0z"/><path d="M37.919 25.963l-.07-.07c-.07 0-3.08-1.89-8.54-1.89a28.203 28.203 0 00-4.62.42c-8.4 1.47-11.76 5.81-11.83 5.88v.14c0 .07.91 4.48 2.1 8.89A16.282 16.282 0 0029.4 51.723h.21c.84-.14 10.36-4.9 9.52-16.66-.441-4.55-1.211-9.03-1.211-9.1zm-8.75 23.66a14.21 14.21 0 01-12.18-10.85c-.84-3.15-1.54-6.3-1.89-7.77 1.19-1.12 4.27-3.5 9.94-4.48a22.624 22.624 0 014.27-.42 18.781 18.781 0 016.72 1.19c.21 1.54.7 4.69.91 7.91a14.539 14.539 0 01-7.77 14.42zm3.15-26.81a16.275 16.275 0 011.96.35.525.525 0 00.28-.07 2.352 2.352 0 001.4-3.08c-.49-1.26-4.97.42-4.55 1.68a2.8 2.8 0 00.91 1.12zm13.02 1.33c.84-1.05-2.87-4.13-3.71-3.08a2.506 2.506 0 00.28 3.43 2.443 2.443 0 003.43-.35zm-5.39 6.09c.14 1.12.28 2.31.35 3.5l2.03.35c.28-1.4-.7-2.94-2.38-3.85zm12.11-11.27c0-.07-3.43-4.41-11.83-6.02a32.305 32.305 0 00-4.9-.42c-5.32 0-8.26 1.82-8.26 1.82l-.07.07c0 .07-.63 4.13-1.12 8.4l2.1-.21c.28-2.73.7-5.46.91-6.86a17.941 17.941 0 016.44-1.12 24.101 24.101 0 014.41.42 20.398 20.398 0 0110.01 4.62c-.35 1.54-.98 4.62-1.89 7.7a14.343 14.343 0 01-7.42 9.24c0 .84-.07 1.68-.14 2.45A16.709 16.709 0 0049.889 28c1.26-4.34 2.17-8.82 2.17-8.89v-.14zM23.8 33.6a2.415 2.415 0 10-1.96 2.8 2.478 2.478 0 001.96-2.8zm6.93-3.71a2.415 2.415 0 102.8 1.96 2.401 2.401 0 00-2.821-1.967zM22.4 42.7c.35 2.03 3.08 3.29 6.02 2.8s5.11-2.59 4.76-4.69z"/></symbol><symbol fill="#fff" viewBox="0 0 64 64" id="handshake" xmlns="http://www.w3.org/2000/svg"><path fill="currentColor" d="M0 0h64v64H0z"/><path d="M49.084 32.97l4.48-2.52-6.79-12.25-4.27 2.38h-5.53l-4.13-2.31-10.99 2.03-3.654-2.1-6.776 12.25 5.32 3.01a3.22 3.22 0 00-.42 4.27 2.905 2.905 0 001.82 1.19 4.417 4.417 0 00.56 1.61 2.912 2.912 0 002.1 1.26h.63a2.17 2.17 0 00.42.91 3.283 3.283 0 002.59 1.33 3.5 3.5 0 00.84-.14c.07.14.21.35.28.49a3.087 3.087 0 002.52 1.26 3.024 3.024 0 001.82-.63l.28-.21 4.06 2.24a3.255 3.255 0 001.61.42 4.13 4.13 0 00.98-.14 3.591 3.591 0 002.03-1.61 3.094 3.094 0 00.35-1.05h.21a4.13 4.13 0 00.98-.14 3.591 3.591 0 002.03-1.61 3.5 3.5 0 00.35-.91c.21 0 .35.07.56.07a4.13 4.13 0 00.98-.14 3.591 3.591 0 002.03-1.61 3.094 3.094 0 00.35-1.05h.14a3.577 3.577 0 003.08-1.75 3.311 3.311 0 00-.84-4.55zm-6.02-10.22l2.94-1.61 4.76 8.54-3.78 2.1-8.61-4.76-.49.28-4.9 2.59a5.18 5.18 0 01-2.52.63c-1.68 0-3.08-.7-3.57-1.4l-.07-.07a9.443 9.443 0 002.94-1.05c1.54-.84 5.25-4.13 6.37-5.18zm-24.08 14.28a1.337 1.337 0 01-.98-.49 1.225 1.225 0 01.28-1.68l2.31-1.68a1.183 1.183 0 01.7-.21 1.337 1.337 0 01.98.49 1.225 1.225 0 01-.28 1.68l-2.31 1.68a1.351 1.351 0 01-.7.21zm3.08 2.59a1.183 1.183 0 01-.7.21 1.337 1.337 0 01-.98-.49 1.064 1.064 0 01-.21-.91 1.33 1.33 0 01.49-.77l3.01-2.17a1.183 1.183 0 01.7-.21 1.337 1.337 0 01.98.49 1.225 1.225 0 01-.28 1.68zm3.136 2.24a1.183 1.183 0 01-.7.21 1.337 1.337 0 01-.98-.49 1.225 1.225 0 01.28-1.68l2.31-1.68a1.183 1.183 0 01.7-.21 1.337 1.337 0 01.98.49 1.225 1.225 0 01-.28 1.68zm3.57 1.68a1.127 1.127 0 01-.63.21.917.917 0 01-.84-.42 1.085 1.085 0 01.21-1.47l1.47-1.05a1.127 1.127 0 01.63-.21.917.917 0 01.84.42 1.085 1.085 0 01-.21 1.47zm19.46-7a1.337 1.337 0 01-1.61.63l-1.68-.98-6.23-3.43-.7 1.26 6.23 3.43a1.512 1.512 0 01.49 1.89 1.302 1.302 0 01-.84.63 1.54 1.54 0 01-.98-.07l-2.45-1.33-3.78-2.1-.7 1.26 4.34 2.45a1.197 1.197 0 01.56.84 1.358 1.358 0 01-.14 1.05 1.302 1.302 0 01-.84.63 1.708 1.708 0 01-.84 0l-2.31-1.4-2.17-1.19-.7 1.26 2.8 1.54a1.512 1.512 0 01.49 1.89 1.302 1.302 0 01-.84.63 1.183 1.183 0 01-.98-.07l-3.29-1.82a3.143 3.143 0 00.07-3.78 3.003 3.003 0 00-2.03-1.26h-.21a2.667 2.667 0 00-.56-1.19 3.101 3.101 0 00-1.82-1.19 4.417 4.417 0 00-.56-1.61 3.22 3.22 0 00-2.66-1.33 2.583 2.583 0 00-.49-.98 3.171 3.171 0 00-4.48-.7l-.7.49-4.34-2.31 4.76-8.54 2.45 1.4 10.92-1.96 1.82 1.05c-1.61 1.47-4.48 3.99-5.6 4.55a15.785 15.785 0 01-3.92 1.19l-.21.63a2.674 2.674 0 00.56 2.45c1.05 1.4 3.08 2.24 5.25 2.24a7.875 7.875 0 003.57-.84c1.75-.91 3.57-1.89 4.41-2.31l8.694 4.76.84.49c.56.14.77 1.12.42 1.75z"/></symbol><symbol fill="#fff" viewBox="0 0 64 64" id="internet" xmlns="http://www.w3.org/2000/svg"><path fill="currentColor" d="M0 0h64v64H0z"/><path d="M32.2 12.6a19.6 19.6 0 1019.6 19.6 19.6 19.6 0 00-19.6-19.6zm.7 37.1V42h7.644a24.997 24.997 0 01-4.788 7.336 17.5 17.5 0 01-2.856.364zm-4.256-.343A24.906 24.906 0 0123.877 42H31.5v7.7a17.5 17.5 0 01-2.856-.364zM14.7 32.9h5.81a26.6 26.6 0 001.344 7.7h-4.998a17.374 17.374 0 01-2.156-7.7zm16.8-18.2v7.7h-7.616a24.913 24.913 0 014.816-7.343 17.395 17.395 0 012.8-.357zm4.2.343a24.99 24.99 0 014.837 7.357H32.9v-7.7a17.5 17.5 0 012.8.357zm5.383 8.757a25.046 25.046 0 011.4 7.7H32.9v-7.7zm-9.583 0v7.7h-9.59a25.2 25.2 0 011.4-7.7zm-10.99 7.7H14.7a17.374 17.374 0 012.135-7.7h5.005a26.6 26.6 0 00-1.33 7.7zm1.4 1.4h9.59v7.7h-8.169a25.2 25.2 0 01-1.421-7.7zm10.99 7.7v-7.7h9.604a25.067 25.067 0 01-1.4 7.7zm11.004-7.7H49.7a17.374 17.374 0 01-2.1 7.7h-5.033a26.488 26.488 0 001.337-7.7zm0-1.4a26.46 26.46 0 00-1.344-7.7h4.991a17.381 17.381 0 012.149 7.7zm2.8-9.1h-4.655a26.257 26.257 0 00-3.864-6.643A17.598 17.598 0 0146.69 22.4zm-20.482-6.643A26.264 26.264 0 0022.4 22.4h-4.69a17.591 17.591 0 018.512-6.643zM17.71 42h4.648a26.264 26.264 0 003.836 6.636A17.598 17.598 0 0117.71 42zm20.496 6.636A26.257 26.257 0 0042.056 42h4.634a17.598 17.598 0 01-8.484 6.636z"/></symbol><symbol fill="#262626" viewBox="0 0 64 64" id="search" xmlns="http://www.w3.org/2000/svg"><path fill="none" d="M0 0h64v64H0z"/><path d="M37 7a20 20 0 010 40 19.46 19.46 0 01-11.6-3.82h-.12a18.57 18.57 0 01-4.54-4.47A20 20 0 0137 7m0-3a23 23 0 00-18.7 36.4 21.81 21.81 0 005.3 5.2A22.41 22.41 0 0037 50a23 23 0 000-46zM17.37 42.41L4.9 54.87A3 3 0 109 59.26l.15-.15 12.5-12.49a23.88 23.88 0 01-4.28-4.21z"/></symbol></svg>