<svg width="23" height="24" xmlns="http://www.w3.org/2000/svg" xmlns:xlink="http://www.w3.org/1999/xlink"><defs><path d="M20.125 12.185v7.69h-4.313V12.7c0-1.802-.624-3.032-2.186-3.032-1.192 0-1.9.829-2.213 1.63-.114.287-.143.686-.143 1.088v7.489H6.955s.058-12.151 0-13.41h4.315v1.9l-.029.044h.029v-.044c.573-.912 1.597-2.216 3.888-2.216 2.839 0 4.967 1.917 4.967 6.036zM2.442 0C.966 0 0 1 0 2.317c0 1.287.938 2.318 2.384 2.318h.03c1.504 0 2.44-1.031 2.44-2.318C4.825 1 3.918 0 2.442 0zM.256 19.875H4.57V6.465H.256v13.41z" id="a"/></defs><g fill="none" fill-rule="evenodd"><path fill="#F8F8F8" d="M-19-1346h336v2771H-19z"/><path fill="#FFF" fill-rule="nonzero" d="M-19-1228h337V211H-19z"/><g transform="translate(1.797 2.25)"><mask id="b" fill="#fff"><use xlink:href="#a"/></mask><use fill="#000" fill-rule="nonzero" xlink:href="#a"/><g mask="url(#b)" fill="#262626"><path d="M-1.847-2.295h23.46v24.48h-23.46z"/></g></g></g></svg>