<svg width="23" height="24" xmlns="http://www.w3.org/2000/svg"><g fill="none" fill-rule="evenodd"><path fill="#F8F8F8" d="M-19-1310h336v2771H-19z"/><path fill="#FFF" fill-rule="nonzero" d="M-19-1192h337V247H-19z"/><path d="M11.884 17.077h3.726a12.948 12.948 0 01-1.828 3.148 7.895 7.895 0 01-1.898.321v-3.469zm0-4.696h4.696a13.413 13.413 0 01-.69 3.917h-4.006V12.38zm0-4.707h3.985c.426 1.25.668 2.568.709 3.927h-4.694V7.674zm0-4.22a7.884 7.884 0 011.863.312 12.96 12.96 0 011.837 3.13h-3.7V3.454zm6.209 3.442h-1.698a13.747 13.747 0 00-1.34-2.612 8.352 8.352 0 013.038 2.612zm.497.778a8.767 8.767 0 011.117 3.927h-2.382a14.235 14.235 0 00-.662-3.927h1.927zm.017 8.624h-1.925a14.22 14.22 0 00.645-3.917h2.382a8.764 8.764 0 01-1.102 3.917zm-3.519 3.4a13.84 13.84 0 001.328-2.62h1.697a8.347 8.347 0 01-3.025 2.62zM11.137 6.897H7.434a12.96 12.96 0 011.837-3.13 7.863 7.863 0 011.866-.312v3.442zm0 4.705H6.44a13.44 13.44 0 01.708-3.927h3.989v3.927zm0 4.697H7.128a13.413 13.413 0 01-.69-3.917h4.699v3.917zm0 4.248a7.875 7.875 0 01-1.901-.32 13.029 13.029 0 01-1.83-3.149h3.73v3.47zm-6.232-3.469h1.697c.35.918.79 1.798 1.327 2.622a8.358 8.358 0 01-3.024-2.622zm-.494-.78a8.764 8.764 0 01-1.102-3.916h2.382c.033 1.35.25 2.664.644 3.917H4.41zm.016-8.623h1.928a14.235 14.235 0 00-.662 3.927H3.31a8.768 8.768 0 011.117-3.927zm3.537-3.39c-.54.82-.989 1.696-1.342 2.612H4.925a8.345 8.345 0 013.039-2.612zM1.797 12c0 5.592 4.352 10.125 9.712 10.125 5.359 0 9.713-4.533 9.713-10.125S16.868 1.875 11.509 1.875C6.15 1.875 1.797 6.408 1.797 12z" fill="#262626"/></g></svg>